<svg width="512" height="512" viewBox="0 0 512 512" fill="none" xmlns="http://www.w3.org/2000/svg">
  <!-- Symbol only (transparent bg) — adaptive-icon FOREGROUND layer.
       Pair with a solid dark background layer (#1E1B4B) in Image Asset Studio. -->
  <defs>
    <linearGradient id="grad" x1="106" y1="126" x2="406" y2="386" gradientUnits="userSpaceOnUse">
      <stop stop-color="#C4B5FD"/>
      <stop offset="1" stop-color="#67E8F9"/>
    </linearGradient>
  </defs>

  <g stroke="url(#grad)" stroke-width="10" stroke-linecap="round" opacity="0.85">
    <line x1="256" y1="256" x2="406" y2="256"/>
    <line x1="256" y1="256" x2="331" y2="386"/>
    <line x1="256" y1="256" x2="181" y2="386"/>
    <line x1="256" y1="256" x2="106" y2="256"/>
    <line x1="256" y1="256" x2="181" y2="126"/>
    <line x1="256" y1="256" x2="331" y2="126"/>
  </g>

  <polygon points="406,256 331,386 181,386 106,256 181,126 331,126"
           stroke="url(#grad)" stroke-width="14" stroke-linejoin="round" fill="none"/>

  <g fill="url(#grad)">
    <circle cx="406" cy="256" r="17"/>
    <circle cx="331" cy="386" r="17"/>
    <circle cx="181" cy="386" r="17"/>
    <circle cx="106" cy="256" r="17"/>
    <circle cx="181" cy="126" r="17"/>
    <circle cx="331" cy="126" r="17"/>
  </g>

  <circle cx="256" cy="256" r="30" fill="#FFFFFF"/>
</svg>
